<svg width="current" height="131" viewBox="0 0 131 131" fill="none" xmlns="http://www.w3.org/2000/svg">
<mask id="path-1-inside-1_995_3468" fill="white">
<path d="M45.9113 3.00302C34.1578 6.68753 23.6813 13.6116 15.6846 22.9803C7.68781 32.3491 2.49487 43.7829 0.701814 55.9692C-1.09124 68.1556 0.588275 80.6006 5.54757 91.8756C10.5069 103.151 18.5449 112.799 28.7391 119.713C38.9333 126.627 50.8704 130.526 63.1802 130.963C75.49 131.4 87.6735 128.357 98.3323 122.183C108.991 116.01 117.693 106.956 123.44 96.0611C129.186 85.1661 131.744 72.8715 130.819 60.5887L115.147 61.7681C115.85 71.1038 113.906 80.4483 109.538 88.7291C105.171 97.0099 98.5567 103.891 90.4554 108.584C82.3541 113.276 73.0939 115.589 63.7378 115.256C54.3817 114.924 45.3088 111.961 37.5606 106.706C29.8125 101.451 23.7031 94.1176 19.9338 85.5479C16.1644 76.9782 14.8879 67.5194 16.2507 58.257C17.6135 48.9947 21.5605 40.3044 27.6384 33.1836C33.7164 26.0628 41.6791 20.8002 50.6125 17.9997L45.9113 3.00302Z"/>
</mask>
<path d="M45.9113 3.00302C34.1578 6.68753 23.6813 13.6116 15.6846 22.9803C7.68781 32.3491 2.49487 43.7829 0.701814 55.9692C-1.09124 68.1556 0.588275 80.6006 5.54757 91.8756C10.5069 103.151 18.5449 112.799 28.7391 119.713C38.9333 126.627 50.8704 130.526 63.1802 130.963C75.49 131.4 87.6735 128.357 98.3323 122.183C108.991 116.01 117.693 106.956 123.44 96.0611C129.186 85.1661 131.744 72.8715 130.819 60.5887L115.147 61.7681C115.85 71.1038 113.906 80.4483 109.538 88.7291C105.171 97.0099 98.5567 103.891 90.4554 108.584C82.3541 113.276 73.0939 115.589 63.7378 115.256C54.3817 114.924 45.3088 111.961 37.5606 106.706C29.8125 101.451 23.7031 94.1176 19.9338 85.5479C16.1644 76.9782 14.8879 67.5194 16.2507 58.257C17.6135 48.9947 21.5605 40.3044 27.6384 33.1836C33.7164 26.0628 41.6791 20.8002 50.6125 17.9997L45.9113 3.00302Z" stroke="#B9CDFF" stroke-width="200" stroke-linejoin="round" mask="url(#path-1-inside-1_995_3468)"/>
<mask id="path-2-inside-2_995_3468" fill="white">
<path d="M121.882 98.8372C128.151 88.2344 131.303 76.0787 130.977 63.7655C130.651 51.4522 126.859 39.4805 120.038 29.2245C113.216 18.9685 103.64 10.8439 92.4103 5.7833C81.1804 0.722703 68.751 -1.06878 56.549 0.614486C44.347 2.29775 32.867 7.38755 23.4266 15.2996C13.9862 23.2117 6.96811 33.6254 3.17794 45.3453C-0.61223 57.0653 -1.02088 69.6164 1.9989 81.558C5.01868 93.4997 11.3445 104.348 20.2502 112.857L31.1076 101.494C24.3388 95.0265 19.5308 86.7813 17.2356 77.705C14.9404 68.6287 15.251 59.0891 18.1317 50.1813C21.0125 41.2735 26.3466 33.3585 33.5218 27.3449C40.697 21.3313 49.4225 17.4627 58.6967 16.1833C67.971 14.904 77.418 16.2656 85.9534 20.1119C94.4888 23.9583 101.767 30.1334 106.952 37.9286C112.137 45.7237 115.018 54.8229 115.266 64.1817C115.514 73.5404 113.118 82.7794 108.353 90.8381L121.882 98.8372Z"/>
</mask>
<path d="M121.882 98.8372C128.151 88.2344 131.303 76.0787 130.977 63.7655C130.651 51.4522 126.859 39.4805 120.038 29.2245C113.216 18.9685 103.64 10.8439 92.4103 5.7833C81.1804 0.722703 68.751 -1.06878 56.549 0.614486C44.347 2.29775 32.867 7.38755 23.4266 15.2996C13.9862 23.2117 6.96811 33.6254 3.17794 45.3453C-0.61223 57.0653 -1.02088 69.6164 1.9989 81.558C5.01868 93.4997 11.3445 104.348 20.2502 112.857L31.1076 101.494C24.3388 95.0265 19.5308 86.7813 17.2356 77.705C14.9404 68.6287 15.251 59.0891 18.1317 50.1813C21.0125 41.2735 26.3466 33.3585 33.5218 27.3449C40.697 21.3313 49.4225 17.4627 58.6967 16.1833C67.971 14.904 77.418 16.2656 85.9534 20.1119C94.4888 23.9583 101.767 30.1334 106.952 37.9286C112.137 45.7237 115.018 54.8229 115.266 64.1817C115.514 73.5404 113.118 82.7794 108.353 90.8381L121.882 98.8372Z" stroke="#1550E8" stroke-width="200" stroke-linejoin="round" mask="url(#path-2-inside-2_995_3468)"/>
<circle cx="25.5986" cy="107.189" r="7.88275" fill="#1550E8"/>
<circle cx="114.991" cy="94.9994" r="7.88275" fill="#1550E8"/>
</svg>
