<svg width="169" height="66" viewBox="0 0 169 66" fill="none" xmlns="http://www.w3.org/2000/svg">
<path d="M17.7994 39.45C17.7327 41.1167 17.6327 42.6833 17.4994 44.15C17.3661 45.5833 17.2161 47.1333 17.0494 48.8C16.9494 49.7333 16.7494 50.6 16.4494 51.4C16.1494 52.2333 15.7161 52.95 15.1494 53.55C14.6161 54.15 13.9494 54.6167 13.1494 54.95C12.3827 55.3167 11.4827 55.5 10.4494 55.5C9.38275 55.5 8.44941 55.3167 7.64941 54.95C6.88275 54.6167 6.21608 54.15 5.64941 53.55C5.11608 52.95 4.69941 52.2333 4.39941 51.4C4.09941 50.6 3.89941 49.7333 3.79941 48.8C3.29941 44.0333 3.04941 39.1333 3.04941 34.1C3.04941 29.0667 3.29941 24.1667 3.79941 19.4C3.89941 18.4667 4.09941 17.6 4.39941 16.8C4.69941 16 5.11608 15.3 5.64941 14.7C6.21608 14.1 6.88275 13.6333 7.64941 13.3C8.44941 12.9333 9.38275 12.75 10.4494 12.75C11.6494 12.75 12.6661 12.9667 13.4994 13.4C14.3661 13.8333 15.0827 14.4333 15.6494 15.2C16.3827 16.2333 17.0994 17.3833 17.7994 18.65C18.5327 19.9167 19.2327 21.2333 19.8994 22.6C20.5994 23.9333 21.2661 25.3 21.8994 26.7C22.5327 28.1 23.1494 29.45 23.7494 30.75C23.9161 31.0833 24.1161 31.25 24.3494 31.25C24.5827 31.25 24.7827 31.0833 24.9494 30.75C25.5494 29.45 26.1661 28.1 26.7994 26.7C27.4327 25.3 28.0827 23.9333 28.7494 22.6C29.4494 21.2333 30.1494 19.9167 30.8494 18.65C31.5827 17.3833 32.3161 16.2333 33.0494 15.2C33.5827 14.4333 34.2827 13.8333 35.1494 13.4C36.0161 12.9667 37.0494 12.75 38.2494 12.75C39.3161 12.75 40.2327 12.9333 40.9994 13.3C41.7994 13.6333 42.4661 14.1 42.9994 14.7C43.5661 15.3 43.9994 16 44.2994 16.8C44.5994 17.6 44.7994 18.4667 44.8994 19.4C45.3661 24.1667 45.5994 29.0667 45.5994 34.1C45.5994 39.1333 45.3661 44.0333 44.8994 48.8C44.7994 49.7333 44.5994 50.6 44.2994 51.4C43.9994 52.2333 43.5661 52.95 42.9994 53.55C42.4661 54.15 41.7994 54.6167 40.9994 54.95C40.2327 55.3167 39.3161 55.5 38.2494 55.5C37.2161 55.5 36.2994 55.3167 35.4994 54.95C34.7327 54.6167 34.0661 54.15 33.4994 53.55C32.9661 52.95 32.5494 52.2333 32.2494 51.4C31.9494 50.6 31.7494 49.7333 31.6494 48.8C31.4827 47.1333 31.3327 45.5833 31.1994 44.15C31.0661 42.6833 30.9661 41.1167 30.8994 39.45C31.4661 38.25 31.9494 37.1667 32.3494 36.2C32.7494 35.2 33.0994 34.1333 33.3994 33C33.4661 32.7 33.4494 32.4667 33.3494 32.3C33.2827 32.1333 33.1661 32.0333 32.9994 32C32.8661 31.9333 32.7161 31.95 32.5494 32.05C32.4161 32.15 32.3161 32.3167 32.2494 32.55C31.6827 34.35 30.9494 36.2 30.0494 38.1C29.1827 40 28.3161 41.75 27.4494 43.35C27.0827 43.9833 26.6161 44.4667 26.0494 44.8C25.5161 45.1 24.9494 45.25 24.3494 45.25C23.7494 45.25 23.1661 45.1 22.5994 44.8C22.0327 44.4667 21.5827 43.9833 21.2494 43.35C20.3827 41.75 19.4994 40 18.5994 38.1C17.7327 36.2 17.0161 34.35 16.4494 32.55C16.3827 32.3167 16.2661 32.15 16.0994 32.05C15.9661 31.95 15.8161 31.9333 15.6494 32C15.5161 32.0333 15.3994 32.1333 15.2994 32.3C15.2327 32.4667 15.2327 32.7 15.2994 33C15.5994 34.1333 15.9494 35.2 16.3494 36.2C16.7494 37.1667 17.2327 38.25 17.7994 39.45ZM54.7861 53.6C53.6528 52.9 52.6695 52.05 51.8361 51.05C51.0028 50.0833 50.3028 49.0333 49.7361 47.9C49.1695 46.7333 48.7361 45.5167 48.4361 44.25C48.1695 42.9833 48.0195 41.7 47.9861 40.4C47.9528 38.8667 48.1028 37.35 48.4361 35.85C48.7695 34.3167 49.2528 32.9 49.8861 31.6C50.5528 30.2667 51.3695 29.0833 52.3361 28.05C53.3028 27.0167 54.4361 26.2 55.7361 25.6C57.0028 25.0333 58.3028 24.6167 59.6361 24.35C61.0028 24.05 62.3528 23.9 63.6861 23.9C65.4528 23.9 67.1361 24.1333 68.7361 24.6C70.3361 25.0333 71.7195 25.7167 72.8861 26.65C74.0528 27.5833 74.9528 28.7667 75.5861 30.2C76.2528 31.6333 76.5361 33.3333 76.4361 35.3C76.3028 37.6667 75.6195 39.4667 74.3861 40.7C73.1528 41.9333 71.2695 42.85 68.7361 43.45C68.0695 43.6167 67.3361 43.7167 66.5361 43.75C65.7695 43.7833 65.0028 43.7333 64.2361 43.6C63.5028 43.4667 62.8028 43.2333 62.1361 42.9C61.5028 42.5667 61.0028 42.1 60.6361 41.5C60.5028 41.3 60.2361 41.2333 59.8361 41.3C59.4695 41.3333 59.3195 41.5833 59.3861 42.05C59.4195 42.4167 59.6028 42.8 59.9361 43.2C60.2695 43.6 60.7028 43.9833 61.2361 44.35C61.8028 44.6833 62.4528 44.9667 63.1861 45.2C63.9195 45.4 64.7361 45.5 65.6361 45.5C65.9695 45.5 66.3361 45.4667 66.7361 45.4C67.1695 45.3 67.5361 45.2167 67.8361 45.15C68.9695 44.8167 69.9361 44.5833 70.7361 44.45C71.5695 44.3167 72.2861 44.3333 72.8861 44.5C73.5195 44.6667 74.0528 45.0333 74.4861 45.6C74.9195 46.1333 75.3195 46.9167 75.6861 47.95C76.2528 49.55 76.0861 50.9333 75.1861 52.1C74.3195 53.2667 72.6361 54.2333 70.1361 55C68.9361 55.3667 67.8695 55.6 66.9361 55.7C66.0361 55.8 64.9695 55.85 63.7361 55.85C62.1361 55.85 60.5695 55.6833 59.0361 55.35C57.5028 55.0167 56.0861 54.4333 54.7861 53.6ZM61.4361 34.85C62.7028 34.4833 63.8861 34.3167 64.9861 34.35C66.1195 34.35 67.2861 34.4833 68.4861 34.75C68.6861 34.7833 68.8528 34.7167 68.9861 34.55C69.1528 34.3833 69.2528 34.2 69.2861 34C69.3195 33.7667 69.2861 33.55 69.1861 33.35C69.0861 33.15 68.8861 33.0167 68.5861 32.95C67.4195 32.6833 66.1861 32.5167 64.8861 32.45C63.6195 32.35 62.4195 32.5333 61.2861 33C61.0195 33.1 60.8361 33.2667 60.7361 33.5C60.6695 33.7 60.6528 33.9167 60.6861 34.15C60.7195 34.3833 60.8028 34.5833 60.9361 34.75C61.0695 34.8833 61.2361 34.9167 61.4361 34.85ZM84.6572 53.6C83.5239 52.9 82.5406 52.05 81.7072 51.05C80.8739 50.0833 80.1739 49.0333 79.6072 47.9C79.0406 46.7333 78.6072 45.5167 78.3072 44.25C78.0406 42.9833 77.8906 41.7 77.8572 40.4C77.8239 38.8667 77.9739 37.35 78.3072 35.85C78.6406 34.3167 79.1239 32.9 79.7572 31.6C80.4239 30.2667 81.2406 29.0833 82.2072 28.05C83.1739 27.0167 84.3072 26.2 85.6072 25.6C86.8739 25.0333 88.1739 24.6167 89.5072 24.35C90.8739 24.05 92.2239 23.9 93.5572 23.9C95.3239 23.9 97.0072 24.1333 98.6072 24.6C100.207 25.0333 101.591 25.7167 102.757 26.65C103.924 27.5833 104.824 28.7667 105.457 30.2C106.124 31.6333 106.407 33.3333 106.307 35.3C106.174 37.6667 105.491 39.4667 104.257 40.7C103.024 41.9333 101.141 42.85 98.6072 43.45C97.9406 43.6167 97.2072 43.7167 96.4072 43.75C95.6406 43.7833 94.8739 43.7333 94.1072 43.6C93.3739 43.4667 92.6739 43.2333 92.0072 42.9C91.3739 42.5667 90.8739 42.1 90.5072 41.5C90.3739 41.3 90.1072 41.2333 89.7072 41.3C89.3406 41.3333 89.1906 41.5833 89.2572 42.05C89.2906 42.4167 89.4739 42.8 89.8072 43.2C90.1406 43.6 90.5739 43.9833 91.1072 44.35C91.6739 44.6833 92.3239 44.9667 93.0572 45.2C93.7906 45.4 94.6072 45.5 95.5072 45.5C95.8406 45.5 96.2072 45.4667 96.6072 45.4C97.0406 45.3 97.4072 45.2167 97.7072 45.15C98.8406 44.8167 99.8072 44.5833 100.607 44.45C101.441 44.3167 102.157 44.3333 102.757 44.5C103.391 44.6667 103.924 45.0333 104.357 45.6C104.791 46.1333 105.191 46.9167 105.557 47.95C106.124 49.55 105.957 50.9333 105.057 52.1C104.191 53.2667 102.507 54.2333 100.007 55C98.8072 55.3667 97.7406 55.6 96.8072 55.7C95.9072 55.8 94.8406 55.85 93.6072 55.85C92.0072 55.85 90.4406 55.6833 88.9072 55.35C87.3739 55.0167 85.9572 54.4333 84.6572 53.6ZM91.3072 34.85C92.5739 34.4833 93.7572 34.3167 94.8572 34.35C95.9906 34.35 97.1572 34.4833 98.3572 34.75C98.5572 34.7833 98.7239 34.7167 98.8572 34.55C99.0239 34.3833 99.1239 34.2 99.1572 34C99.1906 33.7667 99.1572 33.55 99.0572 33.35C98.9572 33.15 98.7572 33.0167 98.4572 32.95C97.2906 32.6833 96.0572 32.5167 94.7572 32.45C93.4906 32.35 92.2906 32.5333 91.1572 33C90.8906 33.1 90.7072 33.2667 90.6072 33.5C90.5406 33.7 90.5239 33.9167 90.5572 34.15C90.5906 34.3833 90.6739 34.5833 90.8072 34.75C90.9406 34.8833 91.1072 34.9167 91.3072 34.85ZM112.428 38.75C111.862 38.75 111.328 38.6833 110.828 38.55C110.362 38.3833 109.945 38.2 109.578 38C107.978 37.0667 107.178 35.25 107.178 32.55C107.178 31.55 107.295 30.7333 107.528 30.1C107.795 29.4333 108.162 28.9 108.628 28.5C109.095 28.0667 109.662 27.75 110.328 27.55C110.995 27.3167 111.745 27.1167 112.578 26.95C112.612 26.6167 112.628 26.3 112.628 26C112.628 25.6667 112.645 25.3333 112.678 25C112.778 23.7333 112.978 22.7 113.278 21.9C113.612 21.1 114.028 20.4833 114.528 20.05C115.062 19.5833 115.695 19.2667 116.428 19.1C117.195 18.9333 118.078 18.85 119.078 18.85C120.045 18.85 120.895 18.9333 121.628 19.1C122.362 19.2667 122.995 19.5833 123.528 20.05C124.062 20.4833 124.478 21.1 124.778 21.9C125.112 22.7 125.345 23.7333 125.478 25V25.15C126.545 25.0833 127.562 25.1 128.528 25.2C129.495 25.3 130.278 25.5333 130.878 25.9C132.478 26.8333 133.278 28.6667 133.278 31.4C133.278 33.3333 132.795 34.7167 131.828 35.55C130.895 36.3833 129.528 36.9 127.728 37.1L126.378 37.25C126.378 37.85 126.362 38.4167 126.328 38.95C126.295 39.4833 126.245 39.9833 126.178 40.45C125.612 40.6167 125.062 40.85 124.528 41.15C124.028 41.4167 123.562 41.7333 123.128 42.1C122.728 42.4667 122.378 42.85 122.078 43.25C121.778 43.6167 121.562 43.9667 121.428 44.3C121.362 44.5 121.362 44.6833 121.428 44.85C121.495 44.9833 121.595 45.0833 121.728 45.15C121.862 45.1833 121.995 45.1833 122.128 45.15C122.295 45.1167 122.412 45.0167 122.478 44.85C123.078 43.6833 123.895 42.7833 124.928 42.15C125.995 41.5167 127.112 41.25 128.278 41.35C129.012 41.4167 129.712 41.6 130.378 41.9C131.078 42.2 131.678 42.6667 132.178 43.3C132.712 43.9 133.112 44.6667 133.378 45.6C133.678 46.5333 133.778 47.65 133.678 48.95C133.612 50.05 133.278 51.0333 132.678 51.9C132.078 52.7667 131.295 53.4833 130.328 54.05C129.395 54.65 128.295 55.1 127.028 55.4C125.795 55.7 124.512 55.85 123.178 55.85C120.778 55.85 118.878 55.45 117.478 54.65C116.078 53.8833 115.012 52.7833 114.278 51.35C113.578 49.95 113.112 48.25 112.878 46.25C112.645 44.2167 112.495 41.9667 112.428 39.5V38.75ZM155.66 47C155.794 46.7 155.827 46.4667 155.76 46.3C155.694 46.1 155.577 45.9667 155.41 45.9C155.277 45.8333 155.11 45.8333 154.91 45.9C154.744 45.9667 154.61 46.1 154.51 46.3C153.544 47.8667 152.444 49.05 151.21 49.85C150.01 50.6167 148.494 51 146.66 51C145.16 51 143.677 50.7333 142.21 50.2C140.744 49.6333 139.444 48.8333 138.31 47.8C137.21 46.7667 136.344 45.5 135.71 44C135.11 42.4667 134.91 40.7167 135.11 38.75L136.26 28.85C136.427 27.35 137.01 26.15 138.01 25.25C139.044 24.35 140.31 23.9 141.81 23.9H145.11C146.61 23.9 147.71 24.35 148.41 25.25C149.11 26.1167 149.31 27.2833 149.01 28.75L146.81 39.25C146.744 39.4833 146.76 39.7 146.86 39.9C146.96 40.0667 147.094 40.1833 147.26 40.25C147.46 40.2833 147.66 40.25 147.86 40.15C148.06 40.05 148.21 39.85 148.31 39.55L150.76 28.75C151.094 27.2833 151.827 26.1167 152.96 25.25C154.127 24.35 155.46 23.9 156.96 23.9H160.06C161.86 23.9 163.31 24.45 164.41 25.55C165.544 26.65 166.11 28.1 166.11 29.9L166.16 43.95C166.194 50.2167 164.794 55.4167 161.96 59.55C161.194 60.6167 160.31 61.5333 159.31 62.3C158.344 63.1 157.277 63.75 156.11 64.25C154.977 64.75 153.777 65.1167 152.51 65.35C151.244 65.6167 149.96 65.75 148.66 65.75C148.26 65.75 147.727 65.7167 147.06 65.65C146.394 65.6167 145.66 65.5333 144.86 65.4C144.06 65.3 143.244 65.1667 142.41 65C141.61 64.8333 140.894 64.6333 140.26 64.4C139.36 64.0667 138.66 63.6167 138.16 63.05C137.66 62.4833 137.31 61.8333 137.11 61.1C136.944 60.4 136.894 59.65 136.96 58.85C137.027 58.0833 137.194 57.3333 137.46 56.6C137.694 55.9333 137.977 55.3 138.31 54.7C138.644 54.1 139.044 53.5833 139.51 53.15C139.977 52.7167 140.527 52.3833 141.16 52.15C141.794 51.95 142.51 51.9 143.31 52C143.777 52.0667 144.394 52.1167 145.16 52.15C145.96 52.2167 146.66 52.25 147.26 52.25C149.36 52.25 151.044 51.7667 152.31 50.8C153.61 49.8333 154.727 48.5667 155.66 47Z" fill="#1B51DC"/>
<circle cx="9.5" cy="5.5" r="5" fill="#1B51DC" stroke="#1550E8"/>
<circle cx="38.5" cy="5.5" r="5" fill="#1B51DC" stroke="#1550E8"/>
</svg>
